<svg id="Layer_1" data-name="Layer 1" xmlns="http://www.w3.org/2000/svg" xmlns:xlink="http://www.w3.org/1999/xlink" viewBox="0 0 390 844"><defs><style>.cls-1{fill:none;}.cls-2{clip-path:url(#clip-path);}.cls-3,.cls-4{fill:#318ce7;isolation:isolate;opacity:0.1;}.cls-4{stroke:#fff;stroke-miterlimit:10;}</style><clipPath id="clip-path"><rect class="cls-1" width="390" height="844"/></clipPath></defs><g class="cls-2"><path class="cls-3" d="M-21.56,619.21c5.86,79,11.71,156.45,17.56,234l-112.6-21.93v-2.93c1.47-52.65,1.47-105.28,1.47-157.91a5.54,5.54,0,0,0-.23-2.39,5.46,5.46,0,0,0-1.24-2c-11.7-17.56-23.38-33.63-35.09-49.72-2.93-4.39-7.32-8.76-10.24-13.15a166.41,166.41,0,0,1-23.39-59.94c-5.85-27.8-10.22-57.05-14.61-86.29a184.37,184.37,0,0,1-1.46-29.24c16.07,10.24,29.24,20.46,43.85,29.24a126.27,126.27,0,0,1,42.41,20.49c5.31,5.31,8.26,7.85,11.31,7.85,2.8,0,5.71-2.17,10.61-6.39,1.47-1.46,2.93-4.39,5.86-5.85a357.57,357.57,0,0,1,51.18-42.4A215.56,215.56,0,0,1,53,395.5l29.24-4.38a1.47,1.47,0,0,0,1.46,1.46c-45.33,77.5-89.18,155-134.52,234C-40.56,623.6-30.34,622.14-21.56,619.21ZM-167.22,285.85l30.7,35.09,87.73,100.89c2.93,2.92,4.39,2.92,8.77,1.46,21.94-11.7,43.87-21.93,65.8-32.17a81.8,81.8,0,0,1,11.7-7.31C-7.85,323.86-51.71,265.37-97,206.89c-26.32,23.39-51.18,46.79-76,70.18A18.72,18.72,0,0,1-167.22,285.85Zm63.89,193c16.09-14.62,30.71-30.7,46.79-45.33a5.43,5.43,0,0,0,1.22-1.22,5.4,5.4,0,0,0,1-4,5.43,5.43,0,0,0-2.17-3.52l-48.25-52.64c-19-19-36.55-39.48-55.56-59.95-8.78-8.77-16.09-17.54-24.86-26.32l-57,79c11.69,10.24,24.85,20.47,36.55,30.71l61.41,52.64c10.24,10.23,21.93,19,32.17,29.24A31.7,31.7,0,0,0-103.33,478.85ZM75.49,208.35c35.1-14.62,68.73-29.24,102.36-43.86-27.78-38-57-74.57-84.81-112.59-24.86,20.47-49.71,39.48-76,60C36,145.48,56.49,177.64,75.49,208.35ZM-85.34,195.19c30.7,38,60,76,90.65,114.05C3.85,291.69,2.39,274.15-.54,256.6c0-2.92-1.46-7.31,2.93-8.77L63.8,217.12C41.87,183.49,19.93,149.86-2,114.77-31.24,143.28-59,168.87-85.34,195.19Zm245.21,649.2c2.5-1,5-2.18,7.51-3.4,4.8-2.37,9.62-4.91,14.42-6.82a6.54,6.54,0,0,0,1.61-.56,6.14,6.14,0,0,0,2.78-8.22c-5.86-30.71-10.24-62.87-14.63-93.58s-8.78-59.94-13.15-89.21a22.74,22.74,0,0,1,4.37-17.53C187.65,588.51,212.5,552,235.89,515.4s46.8-71.63,70.19-108.19c7.31-11.71,14.63-21.95,21.92-33.63a6.54,6.54,0,0,0,0-7.32c-16.07-23.39-33.63-48.24-49.7-71.65-26.31-39.48-52.65-77.48-79-115.5-2.92-4.39-5.85-5.85-10.22-2.93-32.16,17.54-65.79,33.64-99.43,49.71-23.41,11.7-45.33,22-68.72,33.63-2.93,0-4.39,2.93-4.39,5.85,0,16.1-1.46,33.63,0,49.73a102.26,102.26,0,0,0,11.71,29.24C34.11,356,42.89,366.26,48.74,378a7.62,7.62,0,0,0,11.7,2.92C78,372.12,95.52,363.34,113.07,356l26.32-13.15A264.93,264.93,0,0,1,50.2,334.1c21.93-1.47,42.41-1.47,62.87-2.93a13.3,13.3,0,0,0,10.25-4.39A518.57,518.57,0,0,0,165.7,287.3c-2.92,17.55-7.29,33.63-10.22,51.19,11.69,2.92,23.39,7.31,36.56,11.7-23.41,10.22-45.34,19-67.26,29.24a21.42,21.42,0,0,0-8.78,7.3L45.81,500.79c-14.63,23.38-29.24,46.77-43.87,68.72a45,45,0,0,0-4.37,27.78c0,1.46,2.91,2.92,4.37,4.39C9.26,607.53,18,611.9,25.35,617.75H-2.43c7.3,79,13.15,156.45,20.46,235.42"/><path class="cls-4" d="M255.31,670.83a13.92,13.92,0,1,0-13.92-13.92A13.92,13.92,0,0,0,255.31,670.83Z"/><path class="cls-4" d="M343,705.43a13.92,13.92,0,1,0-13.92-13.92A13.92,13.92,0,0,0,343,705.43Z"/><path class="cls-4" d="M397.82,735.34a13.92,13.92,0,1,0-13.92-13.92A13.92,13.92,0,0,0,397.82,735.34Z"/><path class="cls-4" d="M345.87,829.48A13.92,13.92,0,1,0,332,815.56,13.92,13.92,0,0,0,345.87,829.48Z"/><path class="cls-4" d="M343,650a13.92,13.92,0,1,0-13.92-13.92A13.92,13.92,0,0,0,343,650Z"/><path class="cls-4" d="M352.91,581.38A13.92,13.92,0,1,0,339,567.46,13.92,13.92,0,0,0,352.91,581.38Z"/><path class="cls-4" d="M385.63,641.85a13.92,13.92,0,1,0-13.92-13.92A13.92,13.92,0,0,0,385.63,641.85Z"/><path class="cls-4" d="M296.85,490.78a13.92,13.92,0,1,0-13.92-13.92A13.92,13.92,0,0,0,296.85,490.78Z"/><path class="cls-4" d="M222,768.34a13.92,13.92,0,1,0-13.92-13.92A13.92,13.92,0,0,0,222,768.34Z"/><path class="cls-4" d="M290.35,805.1a13.92,13.92,0,1,0-13.92-13.92A13.92,13.92,0,0,0,290.35,805.1Z"/><path class="cls-3" d="M302.52,714.58a13,13,0,0,1-.21,2.65c-.15.87-.36,1.7-.57,2.54a17,17,0,0,1-.56,1.84c-.24.72-.54,1.43-.84,2.12s-.56,1.28-.89,1.91-.66,1.16-1,1.72a16.08,16.08,0,0,1-1.76,2.42,17.27,17.27,0,0,1-2.68,2.59,13.57,13.57,0,0,1-2,1.28,10.21,10.21,0,0,1-2.15.84,1.34,1.34,0,0,1-.74-.06,9.48,9.48,0,0,1-2.06-.84,12.51,12.51,0,0,1-2.41-1.61,18.6,18.6,0,0,1-3.34-3.69,19.21,19.21,0,0,1-1.73-2.89c-.39-.81-.77-1.64-1.13-2.48-.27-.62-.48-1.28-.69-1.93s-.34-1.09-.47-1.64-.3-1.25-.39-1.88-.18-1.31-.27-2a8.72,8.72,0,0,1-.06-1.25,10.07,10.07,0,0,1,.27-2.32,11.3,11.3,0,0,1,.42-1.1.22.22,0,0,1,.11-.12.23.23,0,0,1,.16,0,12.21,12.21,0,0,0,2.56-.18,16.75,16.75,0,0,0,2.41-.63,20,20,0,0,0,3.13-1.32,20.51,20.51,0,0,0,3.13-2c.24-.18.48-.39.72-.6.06-.06.09-.06.15,0a11.88,11.88,0,0,0,2.08,1.58,18.9,18.9,0,0,0,1.85,1.07,12.34,12.34,0,0,0,1.85.84c.71.27,1.43.54,2.17.74a13.59,13.59,0,0,0,2,.39,9.14,9.14,0,0,0,2.09.12.2.2,0,0,1,.14.06.27.27,0,0,1,.09.12,4.25,4.25,0,0,1,.45,1.25A8.35,8.35,0,0,1,302.52,714.58Zm-25.15.12a15,15,0,0,0,.26,2.59c.18.84.33,1.67.57,2.48a19.6,19.6,0,0,0,.78,2.35c.26.72.59,1.43.92,2.12a24.68,24.68,0,0,0,1.72,3.1,19.63,19.63,0,0,0,2.65,3.24,13.78,13.78,0,0,0,2.56,2,11,11,0,0,0,2.24,1c.21.06.42.18.63.09.5-.18,1-.36,1.52-.57a11.77,11.77,0,0,0,2.83-1.79,16.26,16.26,0,0,0,2.53-2.71,24,24,0,0,0,1.55-2.32c.36-.6.66-1.22,1-1.85a14.3,14.3,0,0,0,.72-1.58c.22-.5.42-1,.59-1.52s.39-1.19.54-1.79a15.62,15.62,0,0,0,.39-1.64c.12-.65.21-1.31.3-2a11.58,11.58,0,0,0,0-3.22c-.08-.34-.16-.68-.27-1a.2.2,0,0,0-.09-.13.26.26,0,0,0-.15,0h-.45a10.93,10.93,0,0,1-2.41-.33c-.51-.12-1-.24-1.55-.39a22.22,22.22,0,0,1-4.47-2,22.25,22.25,0,0,1-2.56-1.75l0,0h-.08l0,0-.72.52a18,18,0,0,1-2.23,1.43c-.72.38-1.46.74-2.21,1.1a11.25,11.25,0,0,1-1.4.54c-.57.18-1.1.32-1.67.47a16.91,16.91,0,0,1-1.73.3c-.5.06-1,.06-1.55.12a.28.28,0,0,0-.12,0,.34.34,0,0,0-.09.08,3.09,3.09,0,0,0-.17.54A8.92,8.92,0,0,0,277.37,714.7Z"/><path class="cls-3" d="M356,748.81a13,13,0,0,1-.21,2.65c-.15.87-.35,1.7-.56,2.54-.16.62-.35,1.24-.57,1.85s-.54,1.43-.83,2.11-.57,1.28-.9,1.91-.65,1.16-1,1.73a16,16,0,0,1-1.76,2.41,16.43,16.43,0,0,1-2.68,2.59,13.63,13.63,0,0,1-2,1.29,10.9,10.9,0,0,1-2.14.83,1.21,1.21,0,0,1-.75-.06,9.71,9.71,0,0,1-2-.83,13.58,13.58,0,0,1-2.42-1.61,21.47,21.47,0,0,1-5.07-6.59c-.38-.8-.77-1.64-1.13-2.47-.27-.63-.47-1.28-.68-1.94a16.13,16.13,0,0,1-.48-1.64c-.15-.63-.3-1.25-.39-1.88s-.18-1.31-.27-2a8.86,8.86,0,0,1-.06-1.26,7.08,7.08,0,0,1,.69-3.42.22.22,0,0,1,.11-.12.23.23,0,0,1,.16,0,12.21,12.21,0,0,0,2.56-.18,16.88,16.88,0,0,0,2.42-.63,20.84,20.84,0,0,0,3.12-1.32,18.67,18.67,0,0,0,3.13-2c.24-.18.48-.39.72-.6h.15a11,11,0,0,0,2.08,1.58c.6.39,1.23.75,1.85,1.08a13.93,13.93,0,0,0,1.85.83c.72.27,1.43.54,2.18.75a15.32,15.32,0,0,0,2,.38,9.14,9.14,0,0,0,2.09.12.3.3,0,0,1,.15,0,.38.38,0,0,1,.09.13,4.23,4.23,0,0,1,.44,1.25A7.78,7.78,0,0,1,356,748.81Zm-25.15.12a14.05,14.05,0,0,0,.27,2.59c.18.84.33,1.67.56,2.48a24,24,0,0,0,.78,2.35c.27.72.59,1.43.92,2.12a24.68,24.68,0,0,0,1.72,3.1,20.67,20.67,0,0,0,2.65,3.25,14.19,14.19,0,0,0,2.57,2,10.14,10.14,0,0,0,2.23,1c.21.06.42.18.63.09.51-.18,1-.36,1.52-.57a11.26,11.26,0,0,0,2.83-1.78,16.73,16.73,0,0,0,2.53-2.72,24,24,0,0,0,1.55-2.32c.36-.6.66-1.22,1-1.85a14.14,14.14,0,0,0,.71-1.58c.24-.58.42-1,.6-1.52s.38-1.19.53-1.79a15.44,15.44,0,0,0,.39-1.63c.12-.66.21-1.32.3-2a11.58,11.58,0,0,0,0-3.22,8.68,8.68,0,0,0-.27-1,.29.29,0,0,0-.08-.14.24.24,0,0,0-.16,0h-.44a10.94,10.94,0,0,1-2.42-.33c-.5-.12-1-.24-1.55-.39a17.9,17.9,0,0,1-1.79-.65,20.94,20.94,0,0,1-2.68-1.34,23.69,23.69,0,0,1-2.56-1.76l0,0h-.08l0,0-.72.52a18,18,0,0,1-2.23,1.43c-.72.39-1.46.74-2.21,1.1a11.25,11.25,0,0,1-1.4.54c-.56.18-1.1.33-1.67.48a14.36,14.36,0,0,1-1.72.29c-.51.06-1,.06-1.55.12a.28.28,0,0,0-.12,0,.23.23,0,0,0-.09.08,4.27,4.27,0,0,0-.18.54A9.22,9.22,0,0,0,330.85,748.93Z"/><path class="cls-3" d="M402.64,803a13,13,0,0,1-.21,2.65c-.15.86-.36,1.7-.57,2.53a17.12,17.12,0,0,1-.56,1.85c-.24.72-.54,1.43-.84,2.12s-.56,1.28-.89,1.9-.66,1.17-1,1.73a15.35,15.35,0,0,1-1.75,2.42,16.9,16.9,0,0,1-2.69,2.59,11.91,11.91,0,0,1-4.15,2.12,1.34,1.34,0,0,1-.74-.06,10.86,10.86,0,0,1-2.06-.84,12.51,12.51,0,0,1-2.41-1.61,18.6,18.6,0,0,1-3.34-3.69,19.21,19.21,0,0,1-1.73-2.89c-.39-.81-.77-1.64-1.13-2.48-.27-.62-.48-1.28-.69-1.93s-.34-1.09-.47-1.64-.3-1.26-.39-1.88-.18-1.31-.27-2a8.72,8.72,0,0,1-.06-1.25,10.07,10.07,0,0,1,.27-2.32c.12-.39.27-.75.42-1.11a.29.29,0,0,1,.1-.12.3.3,0,0,1,.16,0,13,13,0,0,0,2.57-.17,16.75,16.75,0,0,0,2.41-.63,21,21,0,0,0,3.13-1.33,19.33,19.33,0,0,0,3.13-2c.24-.18.48-.39.71-.6.06-.06.09-.06.15,0a12.34,12.34,0,0,0,2.09,1.58c.6.39,1.22.74,1.85,1.07a15.41,15.41,0,0,0,1.85.84c.71.27,1.43.53,2.17.74a17.22,17.22,0,0,0,2,.39,10.34,10.34,0,0,0,2.08.12.27.27,0,0,1,.15,0,.24.24,0,0,1,.09.13,4.56,4.56,0,0,1,.45,1.25A8.39,8.39,0,0,1,402.64,803Zm-25.15.12a15,15,0,0,0,.26,2.59c.18.83.33,1.67.57,2.47a21.67,21.67,0,0,0,.77,2.36c.27.71.6,1.43.93,2.11a22.86,22.86,0,0,0,1.72,3.1,18.82,18.82,0,0,0,2.65,3.25,13.38,13.38,0,0,0,2.56,2,11,11,0,0,0,2.24,1c.21.06.42.18.62.09.51-.18,1.05-.36,1.52-.57a11.83,11.83,0,0,0,2.84-1.79A17.21,17.21,0,0,0,396.7,817a24,24,0,0,0,1.55-2.32c.36-.6.65-1.23,1-1.85a16,16,0,0,0,.72-1.58c.24-.53.41-1,.59-1.52s.39-1.19.54-1.79a15.62,15.62,0,0,0,.39-1.64c.12-.65.21-1.31.29-2a12.32,12.32,0,0,0,0-3.21c-.08-.35-.17-.68-.27-1a.24.24,0,0,0-.09-.13.21.21,0,0,0-.15-.05h-.45a11.54,11.54,0,0,1-2.41-.32c-.51-.12-1.05-.24-1.55-.39s-1.19-.42-1.79-.66a17.64,17.64,0,0,1-2.68-1.34,20.48,20.48,0,0,1-2.57-1.76l0,0h-.09l0,0L389,796a18,18,0,0,1-2.23,1.43c-.72.39-1.47.75-2.21,1.11a9.83,9.83,0,0,1-1.4.53c-.57.18-1.1.33-1.67.48a16.91,16.91,0,0,1-1.73.3c-.5.06-1,.06-1.55.12a.28.28,0,0,0-.12,0l-.09.08a4.72,4.72,0,0,0-.18.53,9.62,9.62,0,0,0-.28,2.56Z"/><path class="cls-3" d="M208,673.73a13.2,13.2,0,0,1-.21,2.66c-.15.86-.36,1.7-.57,2.53a17.12,17.12,0,0,1-.56,1.85c-.24.71-.54,1.43-.84,2.11s-.56,1.29-.89,1.91-.66,1.16-1,1.73a16,16,0,0,1-1.76,2.41,17.81,17.81,0,0,1-2.68,2.6,14.44,14.44,0,0,1-2,1.28,11.24,11.24,0,0,1-2.15.83,1.17,1.17,0,0,1-.74-.06,10,10,0,0,1-2.06-.83,13.5,13.5,0,0,1-2.41-1.61,21.46,21.46,0,0,1-5.07-6.59c-.39-.8-.77-1.64-1.13-2.47-.27-.63-.48-1.28-.69-1.94s-.34-1.08-.47-1.64-.3-1.25-.39-1.87-.18-1.32-.27-2a8.65,8.65,0,0,1-.06-1.25,10.16,10.16,0,0,1,.27-2.33c.12-.38.27-.74.42-1.1a.25.25,0,0,1,.11-.12.23.23,0,0,1,.16,0,12.17,12.17,0,0,0,2.56-.18A15.22,15.22,0,0,0,188,669a21,21,0,0,0,3.13-1.33,18.67,18.67,0,0,0,3.13-2c.24-.18.48-.38.72-.59.06-.06.09-.06.14,0a12.34,12.34,0,0,0,2.09,1.58c.6.38,1.22.74,1.85,1.07a13.38,13.38,0,0,0,1.85.83c.71.27,1.43.54,2.17.75a17.22,17.22,0,0,0,2,.39,10.34,10.34,0,0,0,2.08.12.3.3,0,0,1,.15,0,.27.27,0,0,1,.09.12,4.74,4.74,0,0,1,.45,1.26A8.26,8.26,0,0,1,208,673.73Zm-25.15.12a15.18,15.18,0,0,0,.26,2.6c.18.83.33,1.67.57,2.47a19,19,0,0,0,.78,2.35c.27.72.58,1.43.92,2.12a24.68,24.68,0,0,0,1.72,3.1,20.67,20.67,0,0,0,2.65,3.25,14.22,14.22,0,0,0,2.56,2,11,11,0,0,0,2.24,1c.21.06.42.18.63.09.5-.18,1-.35,1.52-.56a11.77,11.77,0,0,0,2.83-1.79,17.08,17.08,0,0,0,2.53-2.71,24.15,24.15,0,0,0,1.55-2.33c.36-.59.65-1.22,1-1.85a13.25,13.25,0,0,0,.72-1.57c.24-.57.42-1,.59-1.52s.39-1.2.54-1.79a15.62,15.62,0,0,0,.39-1.64c.12-.66.21-1.31.3-2a12.4,12.4,0,0,0,0-3.22c-.08-.34-.17-.68-.27-1a.2.2,0,0,0-.09-.13.21.21,0,0,0-.15-.05h-.45a10.93,10.93,0,0,1-2.41-.33l-1.55-.38a15.85,15.85,0,0,1-1.79-.66,19.15,19.15,0,0,1-2.68-1.34,21.13,21.13,0,0,1-2.56-1.76l0,0h-.08l0,0-.72.52a18,18,0,0,1-2.23,1.43c-.72.39-1.46.75-2.21,1.1a11.25,11.25,0,0,1-1.4.54c-.57.18-1.1.33-1.67.48a16.91,16.91,0,0,1-1.73.3c-.5.06-1,.06-1.55.12l-.12,0-.09.08a3.74,3.74,0,0,0-.17.54,8.88,8.88,0,0,0-.33,2.51Z"/><path class="cls-3" d="M372.75,416.4a13,13,0,0,1-.21,2.65c-.14.86-.35,1.7-.56,2.53-.16.63-.35,1.24-.57,1.85s-.53,1.43-.83,2.12-.57,1.28-.9,1.9-.65,1.17-1,1.73a16.08,16.08,0,0,1-1.76,2.42,16.43,16.43,0,0,1-2.68,2.59,11.92,11.92,0,0,1-2,1.28,10.9,10.9,0,0,1-2.14.83,1.21,1.21,0,0,1-.75-.06,9.71,9.71,0,0,1-2-.83,12.28,12.28,0,0,1-2.42-1.61,19.2,19.2,0,0,1-3.34-3.69,18.77,18.77,0,0,1-1.72-2.9c-.39-.8-.78-1.63-1.14-2.47a18.55,18.55,0,0,1-.68-1.94,15.24,15.24,0,0,1-.48-1.63c-.15-.63-.3-1.26-.39-1.88s-.18-1.31-.26-2a8.65,8.65,0,0,1-.06-1.25,10.74,10.74,0,0,1,.26-2.33c.12-.38.27-.74.42-1.1a.32.32,0,0,1,.11-.12.3.3,0,0,1,.16,0,12.21,12.21,0,0,0,2.56-.18,15.62,15.62,0,0,0,2.42-.62,21,21,0,0,0,3.13-1.33,19.94,19.94,0,0,0,3.12-2c.24-.18.48-.39.72-.6.06-.06.09-.06.15,0a12.34,12.34,0,0,0,2.09,1.58c.59.39,1.22.74,1.84,1.07a16.16,16.16,0,0,0,1.85.84c.72.26,1.43.53,2.18.74a17.22,17.22,0,0,0,2,.39,10.44,10.44,0,0,0,2.09.12.27.27,0,0,1,.15,0,.3.3,0,0,1,.09.13,4.23,4.23,0,0,1,.44,1.25A7.78,7.78,0,0,1,372.75,416.4Zm-25.15.12a14.05,14.05,0,0,0,.27,2.59c.18.83.33,1.67.56,2.47a24.14,24.14,0,0,0,.78,2.36c.27.71.6,1.43.92,2.11a24.68,24.68,0,0,0,1.72,3.1,20.19,20.19,0,0,0,2.66,3.25,13.38,13.38,0,0,0,2.56,2,10.63,10.63,0,0,0,2.23,1,1,1,0,0,0,.63.09c.51-.18,1-.36,1.52-.57a11.77,11.77,0,0,0,2.83-1.79,17.08,17.08,0,0,0,2.53-2.71,24.15,24.15,0,0,0,1.55-2.33c.36-.59.66-1.22,1-1.84s.47-1.05.71-1.58.42-1,.6-1.52a16.62,16.62,0,0,0,.53-1.79,15.62,15.62,0,0,0,.39-1.64c.12-.66.21-1.31.3-2a11.58,11.58,0,0,0,0-3.22,8.68,8.68,0,0,0-.27-1,.29.29,0,0,0-.08-.14.24.24,0,0,0-.16,0h-.44a10.94,10.94,0,0,1-2.42-.33c-.5-.11-1-.23-1.55-.38a22.22,22.22,0,0,1-4.47-2,21.13,21.13,0,0,1-2.56-1.76l0,0h-.08l0,0-.71.52a18.08,18.08,0,0,1-2.24,1.43c-.71.39-1.46.75-2.21,1.11a9.83,9.83,0,0,1-1.4.53c-.56.18-1.1.33-1.66.48a16.91,16.91,0,0,1-1.73.3c-.51.06-1,.06-1.55.12a.28.28,0,0,0-.12,0,.18.18,0,0,0-.09.08,4.72,4.72,0,0,0-.18.53A9.41,9.41,0,0,0,347.6,416.52Z"/><path class="cls-3" d="M235,594.07a13,13,0,0,1-.21,2.65c-.14.87-.35,1.7-.56,2.54-.16.62-.35,1.24-.57,1.85s-.53,1.43-.83,2.11-.57,1.28-.9,1.91-.65,1.16-1,1.73a16,16,0,0,1-1.76,2.41,16.43,16.43,0,0,1-2.68,2.59,13.12,13.12,0,0,1-2,1.29,10.9,10.9,0,0,1-2.14.83,1.21,1.21,0,0,1-.75-.06,10.12,10.12,0,0,1-2-.83,14,14,0,0,1-2.42-1.61,19,19,0,0,1-3.34-3.7,18.36,18.36,0,0,1-1.72-2.89c-.39-.8-.78-1.64-1.14-2.47-.27-.63-.47-1.28-.68-1.94a15.41,15.41,0,0,1-.48-1.64c-.15-.63-.3-1.25-.39-1.88s-.18-1.31-.27-2a12,12,0,0,1,.21-3.58,11.3,11.3,0,0,1,.42-1.1.25.25,0,0,1,.11-.12.23.23,0,0,1,.16,0,12.17,12.17,0,0,0,2.56-.18,16.88,16.88,0,0,0,2.42-.63,22.06,22.06,0,0,0,3.13-1.32,19.24,19.24,0,0,0,3.12-2c.24-.18.48-.39.72-.6h.15a11,11,0,0,0,2.08,1.58c.6.39,1.23.75,1.85,1.08a14.54,14.54,0,0,0,1.85.83c.72.27,1.43.54,2.18.75a15.32,15.32,0,0,0,2,.38,9.14,9.14,0,0,0,2.09.12.32.32,0,0,1,.15.06.27.27,0,0,1,.09.12,4.23,4.23,0,0,1,.44,1.25A7.78,7.78,0,0,1,235,594.07Zm-25.15.12a14.05,14.05,0,0,0,.27,2.59c.18.84.33,1.67.56,2.48a24,24,0,0,0,.78,2.35c.27.72.6,1.43.92,2.12a24.68,24.68,0,0,0,1.72,3.1,20.19,20.19,0,0,0,2.66,3.25,13.38,13.38,0,0,0,2.56,2,10.14,10.14,0,0,0,2.23,1c.21.06.42.18.63.09.51-.18,1-.36,1.52-.57a11.26,11.26,0,0,0,2.83-1.78,16.73,16.73,0,0,0,2.53-2.72,24,24,0,0,0,1.55-2.32c.36-.6.66-1.22,1-1.85a14.14,14.14,0,0,0,.71-1.58c.24-.58.42-1,.6-1.52a16,16,0,0,0,.53-1.79,14.87,14.87,0,0,0,.39-1.63c.12-.66.21-1.32.3-2a11.58,11.58,0,0,0,0-3.22,8.68,8.68,0,0,0-.27-1,.29.29,0,0,0-.08-.14.24.24,0,0,0-.16,0h-.44a10.94,10.94,0,0,1-2.42-.33c-.5-.12-1-.24-1.55-.39s-1.19-.42-1.79-.65a20.94,20.94,0,0,1-2.68-1.34,23.69,23.69,0,0,1-2.56-1.76l0,0h-.08l0,0-.71.52a18.08,18.08,0,0,1-2.24,1.43c-.72.39-1.46.74-2.21,1.1a11.25,11.25,0,0,1-1.4.54c-.56.18-1.1.33-1.66.48a14.52,14.52,0,0,1-1.73.29c-.51.06-1,.06-1.55.12a.28.28,0,0,0-.12,0,.34.34,0,0,0-.09.08q-.1.27-.18.54a9.24,9.24,0,0,0-.32,2.51Z"/><path class="cls-3" d="M302.52,594.07a13,13,0,0,1-.21,2.65c-.15.87-.36,1.7-.57,2.54a17.12,17.12,0,0,1-.56,1.85c-.24.71-.54,1.43-.84,2.11s-.56,1.28-.89,1.91-.66,1.16-1,1.73a16,16,0,0,1-1.76,2.41,17.27,17.27,0,0,1-2.68,2.59,13.63,13.63,0,0,1-2,1.29,11.24,11.24,0,0,1-2.15.83,1.18,1.18,0,0,1-.74-.06,10,10,0,0,1-2.06-.83,13.5,13.5,0,0,1-2.41-1.61,18.65,18.65,0,0,1-3.34-3.7,19.21,19.21,0,0,1-1.73-2.89c-.39-.8-.77-1.64-1.13-2.47-.27-.63-.48-1.28-.69-1.94s-.34-1.09-.47-1.64-.3-1.25-.39-1.88-.18-1.31-.27-2a8.86,8.86,0,0,1-.06-1.26,10.07,10.07,0,0,1,.27-2.32,11.3,11.3,0,0,1,.42-1.1.22.22,0,0,1,.11-.12.23.23,0,0,1,.16,0,12.21,12.21,0,0,0,2.56-.18,16.75,16.75,0,0,0,2.41-.63,20,20,0,0,0,3.13-1.32,18.67,18.67,0,0,0,3.13-2c.24-.18.48-.39.72-.6h.14a11.52,11.52,0,0,0,2.08,1.6c.6.39,1.22.75,1.85,1.08a13.38,13.38,0,0,0,1.85.83c.71.27,1.43.54,2.17.75a15,15,0,0,0,2,.38,9.14,9.14,0,0,0,2.09.12.2.2,0,0,1,.14.06.27.27,0,0,1,.09.12,4.56,4.56,0,0,1,.45,1.25A8.26,8.26,0,0,1,302.52,594.07Zm-25.15.12a15,15,0,0,0,.26,2.59c.18.84.33,1.67.57,2.48a19.6,19.6,0,0,0,.78,2.35c.26.72.59,1.43.92,2.12a24.68,24.68,0,0,0,1.72,3.1,20.67,20.67,0,0,0,2.65,3.25,13.78,13.78,0,0,0,2.56,2,10.43,10.43,0,0,0,2.24,1c.21.06.42.18.63.09.5-.18,1-.36,1.52-.57a11.44,11.44,0,0,0,2.83-1.78,16.73,16.73,0,0,0,2.53-2.72,24,24,0,0,0,1.55-2.32c.36-.6.66-1.22,1-1.85a14.3,14.3,0,0,0,.72-1.58c.22-.5.42-1,.59-1.52s.39-1.19.54-1.79a14.87,14.87,0,0,0,.39-1.63c.12-.66.21-1.32.3-2a11.58,11.58,0,0,0,0-3.22c-.08-.34-.17-.68-.27-1a.2.2,0,0,0-.09-.13.27.27,0,0,0-.15,0h-.45a10.93,10.93,0,0,1-2.41-.33c-.51-.12-1-.24-1.55-.39s-1.19-.42-1.79-.65a20.94,20.94,0,0,1-2.68-1.34,23.69,23.69,0,0,1-2.56-1.76l0,0h-.08l0,0-.72.52a18,18,0,0,1-2.23,1.43c-.72.39-1.46.74-2.21,1.1a11.25,11.25,0,0,1-1.4.54c-.57.18-1.1.33-1.67.48a14.52,14.52,0,0,1-1.73.29c-.5.06-1,.06-1.55.12l-.12,0a.34.34,0,0,0-.09.08,3.74,3.74,0,0,0-.17.54A8.85,8.85,0,0,0,277.37,594.19Z"/><path class="cls-3" d="M290.33,532.52a14.84,14.84,0,0,1-.21,2.66c-.15.86-.36,1.7-.57,2.53-.16.62-.34,1.24-.56,1.85s-.54,1.43-.84,2.11-.57,1.28-.89,1.91-.66,1.16-1,1.73a14.31,14.31,0,0,1-1.76,2.41,17.35,17.35,0,0,1-2.68,2.6,14.44,14.44,0,0,1-2,1.28,11.24,11.24,0,0,1-2.15.83,1.17,1.17,0,0,1-.74-.06,10,10,0,0,1-2.06-.83,13.5,13.5,0,0,1-2.41-1.61,18.35,18.35,0,0,1-3.34-3.7,19.21,19.21,0,0,1-1.73-2.89c-.39-.8-.78-1.64-1.13-2.47-.27-.63-.48-1.28-.69-1.94s-.34-1.08-.48-1.64-.29-1.25-.38-1.88-.18-1.31-.27-2a8.65,8.65,0,0,1-.06-1.25,10.16,10.16,0,0,1,.27-2.33c.12-.39.27-.74.41-1.1a.25.25,0,0,1,.11-.12.41.41,0,0,1,.16,0,12.31,12.31,0,0,0,2.57-.18,15.5,15.5,0,0,0,2.41-.62,21,21,0,0,0,3.13-1.33,18.67,18.67,0,0,0,3.13-2c.24-.18.47-.38.71-.59.06-.06.09-.06.15,0a12.34,12.34,0,0,0,2.09,1.58c.59.38,1.22.74,1.85,1.07a13.81,13.81,0,0,0,1.84.83c.72.27,1.43.54,2.18.75a17.22,17.22,0,0,0,2,.39,10.34,10.34,0,0,0,2.08.12.27.27,0,0,1,.15,0,.27.27,0,0,1,.09.12,4.74,4.74,0,0,1,.45,1.26A8.35,8.35,0,0,1,290.33,532.52Zm-25.16.12a14.25,14.25,0,0,0,.27,2.6c.18.83.33,1.66.57,2.47a21.51,21.51,0,0,0,.77,2.35c.27.72.6,1.43.93,2.12a22.86,22.86,0,0,0,1.72,3.1,19.7,19.7,0,0,0,2.65,3.25,13.38,13.38,0,0,0,2.56,2,10.43,10.43,0,0,0,2.24,1c.21.06.41.18.62.09.51-.18,1.05-.36,1.52-.56a11.58,11.58,0,0,0,2.83-1.79,16.69,16.69,0,0,0,2.54-2.71,24.15,24.15,0,0,0,1.55-2.33c.35-.59.65-1.22,1-1.85a12.66,12.66,0,0,0,.72-1.58c.24-.58.41-1,.59-1.52s.39-1.19.54-1.78a15.62,15.62,0,0,0,.39-1.64c.11-.66.2-1.31.29-2a11.58,11.58,0,0,0,0-3.22c-.07-.34-.16-.68-.26-1a.2.2,0,0,0-.09-.13.27.27,0,0,0-.15,0h-.45a10.93,10.93,0,0,1-2.41-.33c-.51-.12-1.05-.24-1.55-.39a15.91,15.91,0,0,1-1.79-.65,18.12,18.12,0,0,1-2.68-1.34,20.48,20.48,0,0,1-2.57-1.76l0,0h-.08l0,0-.71.52a18.08,18.08,0,0,1-2.24,1.43c-.71.39-1.46.75-2.2,1.1a11.25,11.25,0,0,1-1.4.54c-.57.18-1.11.33-1.67.48a16.91,16.91,0,0,1-1.73.3,7.55,7.55,0,0,0-1.55.11.35.35,0,0,0-.21.12q-.11.27-.18.54A9.64,9.64,0,0,0,265.17,532.64Z"/><path class="cls-3" d="M365.88,492.85a13,13,0,0,1-.21,2.65c-.15.87-.36,1.7-.57,2.53a17.12,17.12,0,0,1-.56,1.85c-.24.72-.54,1.43-.84,2.12s-.56,1.28-.89,1.91-.66,1.16-1,1.72a16.08,16.08,0,0,1-1.76,2.42,16.9,16.9,0,0,1-2.69,2.59,12.34,12.34,0,0,1-2,1.28,12,12,0,0,1-2.15.84,1.34,1.34,0,0,1-.74-.06,11.14,11.14,0,0,1-2.06-.84,12.51,12.51,0,0,1-2.41-1.61,18,18,0,0,1-3.34-3.69,19.21,19.21,0,0,1-1.73-2.89c-.39-.81-.77-1.64-1.13-2.48-.27-.62-.48-1.28-.69-1.93s-.34-1.09-.47-1.64-.3-1.25-.39-1.88-.18-1.31-.27-2a8.65,8.65,0,0,1-.06-1.25,10.07,10.07,0,0,1,.27-2.32c.12-.39.27-.75.42-1.11a.29.29,0,0,1,.1-.12.23.23,0,0,1,.16,0,13,13,0,0,0,2.57-.17,16.75,16.75,0,0,0,2.41-.63,20.57,20.57,0,0,0,3.13-1.33,19.77,19.77,0,0,0,3.13-2c.24-.18.48-.39.71-.6.06-.06.09-.06.15,0a12.34,12.34,0,0,0,2.09,1.58,18.9,18.9,0,0,0,1.85,1.07,15.41,15.41,0,0,0,1.85.84c.71.27,1.43.53,2.17.74a13.85,13.85,0,0,0,2,.39,10.34,10.34,0,0,0,2.08.12.27.27,0,0,1,.15.05.3.3,0,0,1,.09.13,4.56,4.56,0,0,1,.45,1.25A8.08,8.08,0,0,1,365.88,492.85Zm-25.15.12a15,15,0,0,0,.26,2.59c.18.84.33,1.67.57,2.47a21.67,21.67,0,0,0,.77,2.36c.27.71.6,1.43.93,2.11a24.68,24.68,0,0,0,1.72,3.1,18.82,18.82,0,0,0,2.65,3.25,13.38,13.38,0,0,0,2.56,2,11,11,0,0,0,2.24,1c.21.06.42.18.62.09.51-.18,1.05-.36,1.52-.57a11.83,11.83,0,0,0,2.84-1.79,16.26,16.26,0,0,0,2.53-2.71,24,24,0,0,0,1.55-2.32c.36-.6.65-1.23,1-1.85a12,12,0,0,0,.72-1.58c.24-.58.41-1,.59-1.52s.39-1.19.54-1.79a15.62,15.62,0,0,0,.39-1.64c.12-.65.21-1.31.3-2a12.32,12.32,0,0,0,0-3.21c-.08-.35-.17-.68-.27-1a.3.3,0,0,0-.09-.13.27.27,0,0,0-.15-.05H364a11.54,11.54,0,0,1-2.41-.32c-.51-.12-1-.24-1.55-.39s-1.19-.42-1.79-.66a17.64,17.64,0,0,1-2.68-1.34,20.48,20.48,0,0,1-2.57-1.76.11.11,0,0,0-.08,0,.11.11,0,0,0-.07,0l-.72.53a18,18,0,0,1-2.23,1.43c-.72.38-1.46.74-2.21,1.1a9.83,9.83,0,0,1-1.4.53c-.57.18-1.1.33-1.67.48a16.91,16.91,0,0,1-1.73.3c-.5.06-1,.06-1.55.12a.28.28,0,0,0-.12,0,.34.34,0,0,0-.09.08,4.72,4.72,0,0,0-.18.53,9.5,9.5,0,0,0-.22,2.55Z"/><path class="cls-3" d="M398.6,528.41a13,13,0,0,1-.21,2.65c-.15.87-.36,1.7-.57,2.54a17.12,17.12,0,0,1-.56,1.85c-.24.71-.54,1.43-.84,2.11s-.56,1.28-.89,1.91-.66,1.16-1,1.73a15.27,15.27,0,0,1-1.75,2.41,16.9,16.9,0,0,1-2.69,2.59,13.63,13.63,0,0,1-2,1.29,11.24,11.24,0,0,1-2.15.83,1.17,1.17,0,0,1-.74-.06,10,10,0,0,1-2.06-.83,13.5,13.5,0,0,1-2.41-1.61,18.35,18.35,0,0,1-3.34-3.7,19.21,19.21,0,0,1-1.73-2.89c-.39-.8-.77-1.64-1.13-2.47-.27-.63-.48-1.28-.69-1.94s-.34-1.09-.47-1.64-.3-1.25-.39-1.88-.18-1.31-.27-2a8.86,8.86,0,0,1-.06-1.26,10.07,10.07,0,0,1,.27-2.32,11.3,11.3,0,0,1,.42-1.1.2.2,0,0,1,.1-.12.23.23,0,0,1,.16,0,12.31,12.31,0,0,0,2.57-.18,15.25,15.25,0,0,0,2.41-.63,21,21,0,0,0,3.13-1.32,20,20,0,0,0,3.13-2c.24-.18.48-.39.71-.6.06,0,.09,0,.15,0a11.48,11.48,0,0,0,2.09,1.58c.6.39,1.22.75,1.85,1.08a13.38,13.38,0,0,0,1.85.83c.71.27,1.43.54,2.17.75a15,15,0,0,0,2,.38,9.06,9.06,0,0,0,2.08.12.27.27,0,0,1,.15,0,.38.38,0,0,1,.09.13,4.56,4.56,0,0,1,.45,1.25A8.39,8.39,0,0,1,398.6,528.41Zm-25.16.12a16,16,0,0,0,.27,2.59c.18.84.33,1.67.57,2.48a21.51,21.51,0,0,0,.77,2.35c.27.72.6,1.43.93,2.12a22.86,22.86,0,0,0,1.72,3.1,19.61,19.61,0,0,0,2.65,3.25,13.38,13.38,0,0,0,2.56,2,10.22,10.22,0,0,0,2.24,1c.21.06.42.18.62.09.51-.18,1.05-.36,1.52-.57a11.49,11.49,0,0,0,2.84-1.78,16.73,16.73,0,0,0,2.53-2.72,24,24,0,0,0,1.55-2.32c.36-.6.65-1.22,1-1.85a12.66,12.66,0,0,0,.72-1.58c.24-.58.41-1,.59-1.52s.39-1.19.54-1.79a15.44,15.44,0,0,0,.39-1.63c.12-.66.21-1.32.29-2a11.58,11.58,0,0,0,0-3.22c-.07-.34-.16-.68-.26-1a.24.24,0,0,0-.09-.13.2.2,0,0,0-.15,0h-.45a10.93,10.93,0,0,1-2.41-.33c-.51-.12-1.05-.24-1.55-.39s-1.19-.41-1.79-.65a20.31,20.31,0,0,1-2.68-1.34,24.84,24.84,0,0,1-2.57-1.76l0,0h-.09l0,0-.72.52a18,18,0,0,1-2.23,1.43c-.72.39-1.47.74-2.21,1.1a11.25,11.25,0,0,1-1.4.54c-.57.18-1.1.33-1.67.48a14.52,14.52,0,0,1-1.73.29c-.51.06-1,.06-1.55.12a.28.28,0,0,0-.12,0l-.09.08q-.1.27-.18.54A9.64,9.64,0,0,0,373.44,528.53Z"/><path class="cls-3" d="M235,817.35a13.2,13.2,0,0,1-.21,2.66c-.14.86-.35,1.69-.56,2.53-.16.62-.35,1.24-.57,1.85s-.53,1.43-.83,2.11-.57,1.28-.9,1.91-.65,1.16-1,1.73a16,16,0,0,1-1.76,2.41,16.43,16.43,0,0,1-2.68,2.59,13.12,13.12,0,0,1-2,1.29,10.9,10.9,0,0,1-2.14.83,1.21,1.21,0,0,1-.75-.06,10.12,10.12,0,0,1-2-.83,14,14,0,0,1-2.42-1.61,19.26,19.26,0,0,1-3.34-3.7,18.36,18.36,0,0,1-1.72-2.89c-.39-.8-.78-1.64-1.14-2.47-.27-.63-.47-1.28-.68-1.94a16.13,16.13,0,0,1-.48-1.64c-.15-.62-.3-1.25-.39-1.88s-.18-1.31-.27-2c0-.42,0-.83,0-1.25a10.74,10.74,0,0,1,.26-2.33c.12-.39.27-.74.42-1.1a.25.25,0,0,1,.11-.12.23.23,0,0,1,.16,0,12.21,12.21,0,0,0,2.56-.18,14.6,14.6,0,0,0,2.42-.63,20.8,20.8,0,0,0,6.25-3.32c.24-.18.48-.39.72-.59.06-.06.09-.06.15,0a11.88,11.88,0,0,0,2.08,1.58c.6.38,1.23.74,1.85,1.07a13.93,13.93,0,0,0,1.85.83c.72.27,1.43.54,2.18.75a15.32,15.32,0,0,0,2,.38,9.14,9.14,0,0,0,2.09.12.3.3,0,0,1,.15.05.38.38,0,0,1,.09.13,4.23,4.23,0,0,1,.44,1.25A7.78,7.78,0,0,1,235,817.35Zm-25.15.12a14.05,14.05,0,0,0,.27,2.59c.18.84.33,1.67.56,2.48a24,24,0,0,0,.78,2.35c.27.72.6,1.43.92,2.12a24.68,24.68,0,0,0,1.72,3.1,20.19,20.19,0,0,0,2.66,3.25,13.38,13.38,0,0,0,2.56,2,10.14,10.14,0,0,0,2.23,1c.21.06.42.18.63.09l1.52-.56a11.77,11.77,0,0,0,2.83-1.79,17.08,17.08,0,0,0,2.53-2.71,25.46,25.46,0,0,0,1.55-2.33c.36-.6.66-1.22,1-1.85a14.14,14.14,0,0,0,.71-1.58c.24-.58.42-1,.6-1.52a15.81,15.81,0,0,0,.53-1.78,15.62,15.62,0,0,0,.39-1.64c.12-.66.21-1.32.3-2a11.58,11.58,0,0,0,0-3.22,8.68,8.68,0,0,0-.27-1,.25.25,0,0,0-.08-.14.24.24,0,0,0-.16,0h-.44a10.94,10.94,0,0,1-2.42-.33c-.5-.12-1-.24-1.55-.39a17.9,17.9,0,0,1-1.79-.65,20.94,20.94,0,0,1-2.68-1.34,23.69,23.69,0,0,1-2.56-1.76l0,0h-.08l0,0-.71.52a18.08,18.08,0,0,1-2.24,1.43c-.72.39-1.46.75-2.21,1.1a11.25,11.25,0,0,1-1.4.54c-.56.18-1.1.33-1.66.48a14.52,14.52,0,0,1-1.73.29c-.51.06-1,.06-1.55.12a.3.3,0,0,0-.21.12q-.1.27-.18.54a9.24,9.24,0,0,0-.32,2.51Z"/><path class="cls-4" d="M302,193.43A13.92,13.92,0,1,0,288,179.51,13.92,13.92,0,0,0,302,193.43Z"/><path class="cls-4" d="M290.35,252.7a13.92,13.92,0,1,0-13.92-13.92A13.92,13.92,0,0,0,290.35,252.7Z"/><path class="cls-4" d="M389.67,228a13.92,13.92,0,1,0-13.92-13.92A13.92,13.92,0,0,0,389.67,228Z"/><path class="cls-4" d="M392.5,352.07a13.92,13.92,0,1,0-13.92-13.92A13.92,13.92,0,0,0,392.5,352.07Z"/><path class="cls-4" d="M389.67,172.57a13.92,13.92,0,1,0-13.92-13.92A13.92,13.92,0,0,0,389.67,172.57Z"/><path class="cls-4" d="M399.55,104a13.92,13.92,0,1,0-13.92-13.92A13.92,13.92,0,0,0,399.55,104Z"/><path class="cls-4" d="M343.48,13.37A13.92,13.92,0,0,0,357.4-.55a13.92,13.92,0,0,0-13.92-13.92A13.92,13.92,0,0,0,329.56-.55,13.92,13.92,0,0,0,343.48,13.37Z"/><path class="cls-4" d="M337,327.69a13.92,13.92,0,1,0-13.92-13.92A13.92,13.92,0,0,0,337,327.69Z"/><path class="cls-3" d="M349.16,237.17a14.65,14.65,0,0,1-.21,2.65c-.15.87-.36,1.7-.57,2.54-.16.62-.35,1.24-.57,1.85a22.53,22.53,0,0,1-.83,2.11c-.3.69-.57,1.28-.89,1.91s-.66,1.16-1,1.73a15.5,15.5,0,0,1-1.76,2.41,16.43,16.43,0,0,1-2.68,2.59,13.63,13.63,0,0,1-2,1.29,11.24,11.24,0,0,1-2.15.83,1.28,1.28,0,0,1-.75-.06,10.12,10.12,0,0,1-2.05-.83,14,14,0,0,1-2.42-1.61,18.6,18.6,0,0,1-3.33-3.7,19.21,19.21,0,0,1-1.73-2.89c-.39-.8-.78-1.64-1.13-2.47-.27-.63-.48-1.29-.69-1.94a16.13,16.13,0,0,1-.48-1.64c-.15-.63-.29-1.25-.38-1.88s-.18-1.31-.27-2a8.86,8.86,0,0,1-.06-1.26,10.07,10.07,0,0,1,.27-2.32,11.22,11.22,0,0,1,.41-1.1.25.25,0,0,1,.11-.12.23.23,0,0,1,.16,0,12.17,12.17,0,0,0,2.56-.18,16.88,16.88,0,0,0,2.42-.63,21,21,0,0,0,3.13-1.32,20.51,20.51,0,0,0,3.13-2c.24-.18.47-.39.71-.6.06-.06.09-.06.15,0a11,11,0,0,0,2.09,1.58c.59.39,1.22.75,1.84,1.08A14.86,14.86,0,0,0,342,232c.72.27,1.43.54,2.18.75a15.32,15.32,0,0,0,2,.38,9.06,9.06,0,0,0,2.08.12.3.3,0,0,1,.15.05.38.38,0,0,1,.09.13,4.56,4.56,0,0,1,.45,1.25A8,8,0,0,1,349.16,237.17Zm-25.16.12a14.05,14.05,0,0,0,.27,2.59c.18.84.33,1.67.57,2.48a21.51,21.51,0,0,0,.77,2.35c.27.72.6,1.43.93,2.12a23.47,23.47,0,0,0,1.72,3.1,19.21,19.21,0,0,0,2.65,3.25,13.38,13.38,0,0,0,2.56,2,10,10,0,0,0,2.24,1c.2.06.41.18.62.09.51-.18,1-.36,1.52-.57a11.26,11.26,0,0,0,2.83-1.78,17.24,17.24,0,0,0,2.54-2.72,24,24,0,0,0,1.55-2.32c.35-.6.65-1.22,1-1.85a11.24,11.24,0,0,0,.71-1.58c.23-.58.42-1,.6-1.52s.39-1.19.54-1.79a13.42,13.42,0,0,0,.38-1.64c.12-.65.21-1.31.3-2a11.58,11.58,0,0,0,0-3.22,8.68,8.68,0,0,0-.27-1,.22.22,0,0,0-.08-.13.21.21,0,0,0-.15-.05h-.45a10.94,10.94,0,0,1-2.42-.33c-.5-.12-1-.24-1.54-.39s-1.2-.42-1.79-.65a20.43,20.43,0,0,1-2.69-1.34,23.69,23.69,0,0,1-2.56-1.76l0,0h-.08l0,0-.71.52a18.08,18.08,0,0,1-2.24,1.43c-.71.39-1.46.74-2.2,1.1a11.89,11.89,0,0,1-1.4.54c-.57.18-1.11.33-1.67.48a14.52,14.52,0,0,1-1.73.29c-.51.06-1,.06-1.55.12a.28.28,0,0,0-.12,0l-.09.08q-.11.27-.18.54A9.3,9.3,0,0,0,324,237.29Z"/><path class="cls-3" d="M402.64,271.4a13.2,13.2,0,0,1-.21,2.66c-.15.86-.36,1.7-.57,2.53a17.12,17.12,0,0,1-.56,1.85c-.24.71-.54,1.43-.84,2.11s-.56,1.28-.89,1.91-.66,1.16-1,1.73a15.5,15.5,0,0,1-1.76,2.41,17.42,17.42,0,0,1-2.69,2.6,13.57,13.57,0,0,1-2,1.28,11.24,11.24,0,0,1-2.15.83,1.17,1.17,0,0,1-.74-.06,10.21,10.21,0,0,1-2.06-.83,13.5,13.5,0,0,1-2.41-1.61,21.46,21.46,0,0,1-5.07-6.59c-.39-.8-.77-1.64-1.13-2.47-.27-.63-.48-1.28-.69-1.94s-.34-1.08-.47-1.64-.3-1.25-.39-1.88-.18-1.31-.27-2a8.65,8.65,0,0,1-.06-1.25,10.16,10.16,0,0,1,.27-2.33c.12-.39.27-.74.42-1.1a.25.25,0,0,1,.11-.12.2.2,0,0,1,.15,0,12.31,12.31,0,0,0,2.57-.18,15.22,15.22,0,0,0,2.41-.62,21,21,0,0,0,3.13-1.33,18.67,18.67,0,0,0,3.13-2c.24-.18.48-.38.72-.59.05-.06.08-.06.14,0a12.34,12.34,0,0,0,2.09,1.58c.6.38,1.22.74,1.85,1.07a13.93,13.93,0,0,0,1.85.83c.71.27,1.43.54,2.17.75a17.22,17.22,0,0,0,2,.39,10.34,10.34,0,0,0,2.08.12.27.27,0,0,1,.15,0,.27.27,0,0,1,.09.12,4.74,4.74,0,0,1,.45,1.26A8,8,0,0,1,402.64,271.4Zm-25.15.12a15.18,15.18,0,0,0,.26,2.6c.18.83.33,1.67.57,2.47a21.51,21.51,0,0,0,.77,2.35c.27.72.6,1.43.93,2.12a24.68,24.68,0,0,0,1.72,3.1,20.13,20.13,0,0,0,2.65,3.25,13.38,13.38,0,0,0,2.56,2,10.22,10.22,0,0,0,2.24,1c.21.06.42.18.62.09.51-.18,1.05-.36,1.52-.56a11.83,11.83,0,0,0,2.84-1.79,17.08,17.08,0,0,0,2.53-2.71,24.15,24.15,0,0,0,1.55-2.33c.36-.59.65-1.22,1-1.85a12.66,12.66,0,0,0,.72-1.58c.24-.58.41-1,.59-1.52s.39-1.19.54-1.78a15.62,15.62,0,0,0,.39-1.64c.12-.66.21-1.31.3-2a12.4,12.4,0,0,0,0-3.22c-.08-.34-.17-.68-.27-1a.2.2,0,0,0-.09-.13.27.27,0,0,0-.15-.05h-.45a10.93,10.93,0,0,1-2.41-.33c-.51-.12-1.05-.24-1.55-.39A17.8,17.8,0,0,1,395,267a18.12,18.12,0,0,1-2.68-1.34,22.45,22.45,0,0,1-2.57-1.76l0,0h-.09l0,0-.72.52a18,18,0,0,1-2.23,1.43c-.72.39-1.46.75-2.21,1.1a11.25,11.25,0,0,1-1.4.54c-.57.18-1.1.33-1.67.48a16.91,16.91,0,0,1-1.73.3,7.59,7.59,0,0,0-1.55.11.35.35,0,0,0-.21.12q-.11.27-.18.54A9.39,9.39,0,0,0,377.49,271.52Z"/><path class="cls-4" d="M3.14,38.83A13.92,13.92,0,1,0-10.78,24.91,13.92,13.92,0,0,0,3.14,38.83Z"/><path class="cls-4" d="M102.46,14.15A13.92,13.92,0,0,0,116.38.23a13.92,13.92,0,0,0-27.84,0A13.92,13.92,0,0,0,102.46,14.15Z"/><path class="cls-4" d="M140.41,57.16a13.92,13.92,0,1,0-13.92-13.92A13.92,13.92,0,0,0,140.41,57.16Z"/><path class="cls-4" d="M278.94,38.83A13.92,13.92,0,1,0,265,24.91,13.92,13.92,0,0,0,278.94,38.83Z"/><path class="cls-4" d="M219.42,91.59A13.92,13.92,0,1,0,205.5,77.67,13.92,13.92,0,0,0,219.42,91.59Z"/><path class="cls-3" d="M69.51,27.58a13,13,0,0,1-.21,2.65c-.15.87-.35,1.7-.56,2.53-.16.63-.35,1.24-.57,1.85s-.54,1.43-.83,2.12-.57,1.28-.9,1.91-.65,1.16-1,1.72a16.08,16.08,0,0,1-1.76,2.42A17.27,17.27,0,0,1,61,45.37a11.92,11.92,0,0,1-2,1.28,11.6,11.6,0,0,1-2.14.84,1.37,1.37,0,0,1-.75-.06A11.32,11.32,0,0,1,54,46.59,12.59,12.59,0,0,1,51.63,45a19.2,19.2,0,0,1-3.34-3.69,19.21,19.21,0,0,1-1.73-2.89c-.38-.81-.77-1.64-1.13-2.48A18.55,18.55,0,0,1,44.75,34a16.13,16.13,0,0,1-.48-1.64c-.15-.63-.3-1.25-.39-1.88s-.18-1.31-.27-2a8.65,8.65,0,0,1-.06-1.25,10.07,10.07,0,0,1,.27-2.32c.12-.39.27-.75.42-1.11a.25.25,0,0,1,.11-.12.3.3,0,0,1,.16,0,13.72,13.72,0,0,0,2.56-.18,16.75,16.75,0,0,0,2.41-.63,19.61,19.61,0,0,0,3.13-1.33,18.67,18.67,0,0,0,3.13-2c.24-.18.48-.39.72-.6.06-.06.09-.06.15,0a11.88,11.88,0,0,0,2.08,1.58c.6.39,1.23.75,1.85,1.07a16.16,16.16,0,0,0,1.85.84c.71.27,1.43.53,2.17.74a13.85,13.85,0,0,0,2,.39,10.44,10.44,0,0,0,2.09.12.3.3,0,0,1,.15.05.38.38,0,0,1,.09.13,4.23,4.23,0,0,1,.44,1.25A8,8,0,0,1,69.51,27.58Zm-25.15.12a14.05,14.05,0,0,0,.27,2.59c.18.84.32,1.67.56,2.47A24.31,24.31,0,0,0,46,35.12c.27.71.59,1.43.92,2.11a24.68,24.68,0,0,0,1.72,3.1,20.13,20.13,0,0,0,2.65,3.25,13.44,13.44,0,0,0,2.57,2,10.63,10.63,0,0,0,2.23,1c.21.06.42.18.63.09.5-.18,1-.36,1.52-.57A11.79,11.79,0,0,0,61,44.28a16.26,16.26,0,0,0,2.53-2.71,24,24,0,0,0,1.55-2.32c.36-.6.66-1.23,1-1.85a13.37,13.37,0,0,0,.71-1.58c.24-.58.42-1,.6-1.52s.38-1.19.53-1.79a15.62,15.62,0,0,0,.39-1.64c.12-.65.21-1.31.3-2a11.58,11.58,0,0,0,0-3.22,8.68,8.68,0,0,0-.27-1,.2.2,0,0,0-.09-.13.21.21,0,0,0-.15-.05h-.45a10.35,10.35,0,0,1-2.41-.32c-.51-.12-1-.24-1.55-.39a18.06,18.06,0,0,1-1.79-.66,17.64,17.64,0,0,1-2.68-1.34A20.38,20.38,0,0,1,56.66,20a.12.12,0,0,0-.16,0l-.72.53A16.72,16.72,0,0,1,53.53,22c-.72.38-1.46.74-2.21,1.1a11.25,11.25,0,0,1-1.4.54c-.56.17-1.1.32-1.67.47a16.72,16.72,0,0,1-1.72.3c-.51.06-1,.06-1.55.12a.28.28,0,0,0-.12,0,.34.34,0,0,0-.09.08,2.55,2.55,0,0,0-.18.53A9.29,9.29,0,0,0,44.36,27.7Z"/><path class="cls-3" d="M208,19.31a13,13,0,0,1-.21,2.65c-.15.87-.36,1.7-.57,2.54a17,17,0,0,1-.56,1.84c-.24.72-.54,1.44-.84,2.12s-.56,1.28-.89,1.91-.66,1.16-1,1.73a16,16,0,0,1-1.76,2.41,17.27,17.27,0,0,1-2.68,2.59,12.79,12.79,0,0,1-2,1.28,10.21,10.21,0,0,1-2.15.84,1.34,1.34,0,0,1-.74-.06,9.48,9.48,0,0,1-2.06-.84,12.93,12.93,0,0,1-2.41-1.6,18.65,18.65,0,0,1-3.34-3.7A19.57,19.57,0,0,1,185,30.13c-.39-.81-.77-1.64-1.13-2.47-.27-.63-.48-1.29-.69-1.94s-.34-1.09-.47-1.64-.3-1.25-.39-1.88-.18-1.31-.27-2A9.63,9.63,0,0,1,182,19a10.07,10.07,0,0,1,.27-2.32,11.3,11.3,0,0,1,.42-1.1.22.22,0,0,1,.11-.12.22.22,0,0,1,.16,0,12.17,12.17,0,0,0,2.56-.18,16.75,16.75,0,0,0,2.41-.63,20,20,0,0,0,3.13-1.32,20.51,20.51,0,0,0,3.13-2c.24-.18.48-.39.72-.6.06-.06.09-.06.14,0a12.34,12.34,0,0,0,2.09,1.58c.6.39,1.22.75,1.85,1.08a13.93,13.93,0,0,0,1.85.83c.71.27,1.43.54,2.17.75a15.32,15.32,0,0,0,2,.38,9.06,9.06,0,0,0,2.08.12.27.27,0,0,1,.15.05.38.38,0,0,1,.09.13,4.56,4.56,0,0,1,.45,1.25A8.35,8.35,0,0,1,208,19.31Zm-25.15.12a15,15,0,0,0,.26,2.59c.18.84.33,1.67.57,2.48a19.6,19.6,0,0,0,.78,2.35c.26.72.59,1.43.92,2.12a24.68,24.68,0,0,0,1.72,3.1,19.63,19.63,0,0,0,2.65,3.24,13.38,13.38,0,0,0,2.56,2,11,11,0,0,0,2.24,1c.21.06.42.18.63.09.5-.18,1-.36,1.52-.57A12.06,12.06,0,0,0,199.5,36a16.83,16.83,0,0,0,2.5-2.7,24,24,0,0,0,1.58-2.3c.36-.6.65-1.22,1-1.85a12.66,12.66,0,0,0,.72-1.58c.22-.5.42-1,.59-1.52s.39-1.19.54-1.79a15.62,15.62,0,0,0,.39-1.64c.12-.65.21-1.31.3-2a12.4,12.4,0,0,0,0-3.22c-.08-.34-.17-.68-.27-1a.2.2,0,0,0-.09-.13.21.21,0,0,0-.15-.05h-.45a10.93,10.93,0,0,1-2.41-.33c-.51-.12-1-.24-1.55-.39s-1.19-.42-1.79-.65a19.21,19.21,0,0,1-2.68-1.35,22.25,22.25,0,0,1-2.56-1.75l0,0h-.08l0,0-.72.52A17.59,17.59,0,0,1,192,13.71c-.72.39-1.46.74-2.21,1.1a11.25,11.25,0,0,1-1.4.54c-.57.18-1.1.33-1.67.47a14.55,14.55,0,0,1-1.73.3c-.5.06-1,.06-1.55.12a.28.28,0,0,0-.12,0l-.09.08a3.38,3.38,0,0,0-.17.54,9,9,0,0,0-.24,2.53Z"/><path class="cls-3" d="M176,99.19a13,13,0,0,1-.21,2.65c-.15.86-.36,1.7-.57,2.53a17.12,17.12,0,0,1-.56,1.85c-.24.71-.54,1.43-.84,2.11s-.56,1.29-.89,1.91-.66,1.16-1,1.73a15.5,15.5,0,0,1-1.76,2.41,17.81,17.81,0,0,1-2.68,2.6,13.57,13.57,0,0,1-2,1.28,11.24,11.24,0,0,1-2.15.83,1.17,1.17,0,0,1-.74-.06,10,10,0,0,1-2.06-.83,13.5,13.5,0,0,1-2.41-1.61,21.34,21.34,0,0,1-5.07-6.59c-.39-.8-.77-1.64-1.13-2.47-.27-.63-.48-1.28-.69-1.94s-.34-1.08-.47-1.64-.3-1.25-.39-1.87-.18-1.32-.27-2a8.65,8.65,0,0,1-.06-1.25,10.16,10.16,0,0,1,.27-2.33c.12-.38.27-.74.42-1.1a.25.25,0,0,1,.11-.12.23.23,0,0,1,.16,0,12.17,12.17,0,0,0,2.56-.18,15.22,15.22,0,0,0,2.41-.62,21,21,0,0,0,3.13-1.33,18.27,18.27,0,0,0,3.13-2c.24-.17.48-.38.72-.59.06-.06.09-.06.14,0a12.34,12.34,0,0,0,2.09,1.58c.6.38,1.22.74,1.85,1.07a13.38,13.38,0,0,0,1.85.83c.71.27,1.43.54,2.17.75a17.22,17.22,0,0,0,2,.39,10.44,10.44,0,0,0,2.09.12.3.3,0,0,1,.15,0,.22.22,0,0,1,.08.13,4.56,4.56,0,0,1,.45,1.25A8.35,8.35,0,0,1,176,99.19Zm-25.15.11a15.18,15.18,0,0,0,.26,2.6c.18.83.33,1.67.57,2.47a19.75,19.75,0,0,0,.78,2.36c.26.71.59,1.43.92,2.11a24.68,24.68,0,0,0,1.72,3.1,20.67,20.67,0,0,0,2.65,3.25,14.22,14.22,0,0,0,2.56,2,11,11,0,0,0,2.24,1c.21.06.42.18.63.09.5-.18,1-.35,1.52-.56a11.77,11.77,0,0,0,2.83-1.79,17.08,17.08,0,0,0,2.53-2.71,24.15,24.15,0,0,0,1.55-2.33c.36-.59.66-1.22,1-1.84s.48-1,.72-1.58a14.38,14.38,0,0,0,.59-1.52c.17-.52.39-1.2.54-1.79a15.62,15.62,0,0,0,.39-1.64c.12-.66.21-1.31.3-2a11.58,11.58,0,0,0,0-3.22c-.08-.34-.16-.68-.27-1a.2.2,0,0,0-.09-.13.27.27,0,0,0-.15,0h-.45a10.93,10.93,0,0,1-2.41-.33l-1.55-.38a15.85,15.85,0,0,1-1.79-.66,18.12,18.12,0,0,1-2.68-1.34,21.13,21.13,0,0,1-2.56-1.76l0,0h-.08l0,0-.72.52A17.71,17.71,0,0,1,160,93.58c-.72.39-1.46.75-2.21,1.11a13.88,13.88,0,0,1-1.4.53c-.57.18-1.1.33-1.67.48A16.72,16.72,0,0,1,153,96c-.5.06-1,.06-1.55.12a.27.27,0,0,0-.12,0,.34.34,0,0,0-.09.08,3.74,3.74,0,0,0-.17.54,9,9,0,0,0-.2,2.53Z"/><path class="cls-3" d="M221,139.13a13,13,0,0,1-.21,2.65c-.15.87-.36,1.7-.56,2.53-.16.63-.35,1.24-.57,1.85s-.54,1.43-.84,2.12-.56,1.28-.89,1.91-.66,1.16-1,1.72a16.08,16.08,0,0,1-1.76,2.42,17.27,17.27,0,0,1-2.68,2.59,12.79,12.79,0,0,1-2,1.28,12,12,0,0,1-2.15.84,1.34,1.34,0,0,1-.74-.06,11.14,11.14,0,0,1-2.06-.84,12.51,12.51,0,0,1-2.41-1.61A24.08,24.08,0,0,1,198,150c-.38-.81-.77-1.64-1.13-2.48-.27-.62-.48-1.28-.69-1.93s-.34-1.09-.47-1.64-.3-1.25-.39-1.88-.18-1.31-.27-2a8.72,8.72,0,0,1-.06-1.25,10.07,10.07,0,0,1,.27-2.32c.12-.39.27-.75.42-1.11a.25.25,0,0,1,.11-.12.3.3,0,0,1,.16,0,12.92,12.92,0,0,0,2.56-.17,16.75,16.75,0,0,0,2.41-.63,19.61,19.61,0,0,0,3.13-1.33,18.67,18.67,0,0,0,3.13-2c.24-.18.48-.39.72-.6.06-.06.09-.06.15,0a11.88,11.88,0,0,0,2.08,1.58,20.15,20.15,0,0,0,1.85,1.07,16.16,16.16,0,0,0,1.85.84c.71.27,1.43.53,2.17.74a15,15,0,0,0,2,.39,10.44,10.44,0,0,0,2.09.12.27.27,0,0,1,.15.05.22.22,0,0,1,.08.13,4,4,0,0,1,.45,1.25A8.1,8.1,0,0,1,221,139.13Zm-25.15.12a14.05,14.05,0,0,0,.27,2.59c.17.84.32,1.67.56,2.47a19.75,19.75,0,0,0,.78,2.36c.26.71.59,1.43.92,2.11a24.68,24.68,0,0,0,1.72,3.1,20.13,20.13,0,0,0,2.65,3.25,13.44,13.44,0,0,0,2.57,2,10.63,10.63,0,0,0,2.23,1c.21.06.42.18.63.09.5-.18,1-.36,1.52-.57a11.77,11.77,0,0,0,2.83-1.79,16.26,16.26,0,0,0,2.53-2.71,24,24,0,0,0,1.55-2.32c.36-.6.66-1.23,1-1.85a13.5,13.5,0,0,0,.72-1.58c.22-.5.42-1,.59-1.52s.39-1.19.54-1.79a15.62,15.62,0,0,0,.39-1.64c.12-.65.21-1.31.3-2a11.58,11.58,0,0,0,0-3.22,8.68,8.68,0,0,0-.27-1,.2.2,0,0,0-.09-.13.25.25,0,0,0-.15,0h-.45a10.35,10.35,0,0,1-2.41-.32c-.51-.12-1-.24-1.55-.39a22.22,22.22,0,0,1-4.47-2,20.38,20.38,0,0,1-2.56-1.76.12.12,0,0,0-.16,0l-.72.53a18,18,0,0,1-2.23,1.43c-.72.38-1.46.74-2.21,1.1a11.25,11.25,0,0,1-1.4.54c-.57.17-1.1.32-1.67.47a16.91,16.91,0,0,1-1.73.3c-.5.06-1,.06-1.55.12a.21.21,0,0,0-.11,0,.24.24,0,0,0-.09.08,2.55,2.55,0,0,0-.18.53,9.41,9.41,0,0,0-.34,2.53Z"/><path class="cls-3" d="M13,78.08a13,13,0,0,1-.21,2.65c-.15.87-.36,1.7-.57,2.53a16.47,16.47,0,0,1-.56,1.85c-.24.72-.54,1.43-.84,2.12s-.56,1.28-.89,1.91-.66,1.16-1,1.72a16.08,16.08,0,0,1-1.76,2.42,17.27,17.27,0,0,1-2.68,2.59,12.79,12.79,0,0,1-2,1.28A11.42,11.42,0,0,1,.3,98a1.34,1.34,0,0,1-.74-.06A11.14,11.14,0,0,1-2.5,97.1a12.51,12.51,0,0,1-2.41-1.61A18.6,18.6,0,0,1-8.25,91.8,18.93,18.93,0,0,1-10,88.9c-.39-.81-.77-1.64-1.13-2.48-.27-.62-.48-1.28-.69-1.93s-.34-1.09-.47-1.64-.3-1.25-.39-1.88-.18-1.31-.27-2A8.65,8.65,0,0,1-13,77.72a10.07,10.07,0,0,1,.27-2.32c.12-.39.27-.75.42-1.11a.25.25,0,0,1,.11-.12.3.3,0,0,1,.16,0A13.81,13.81,0,0,0-9.47,74a16.75,16.75,0,0,0,2.41-.63A18.92,18.92,0,0,0-3.93,72,19.08,19.08,0,0,0-.8,70c.24-.18.48-.39.72-.6.06-.06.09-.06.14,0A12.45,12.45,0,0,0,2.15,71,19.45,19.45,0,0,0,4,72a15.41,15.41,0,0,0,1.85.84c.71.27,1.43.53,2.17.74A13.41,13.41,0,0,0,10,74a10.34,10.34,0,0,0,2.08.12.27.27,0,0,1,.15,0,.3.3,0,0,1,.09.13,4.56,4.56,0,0,1,.45,1.25A8,8,0,0,1,13,78.08Zm-25.15.12a15,15,0,0,0,.26,2.59c.18.84.33,1.67.57,2.47a19.75,19.75,0,0,0,.78,2.36c.26.71.59,1.43.92,2.11a24.68,24.68,0,0,0,1.72,3.1,18.82,18.82,0,0,0,2.65,3.25,13.38,13.38,0,0,0,2.56,2,11,11,0,0,0,2.24,1c.21.06.42.18.63.09.5-.18,1-.36,1.52-.57a12,12,0,0,0,2.8-1.82A16.48,16.48,0,0,0,7,92.07a24,24,0,0,0,1.55-2.32c.36-.6.65-1.23,1-1.85a12,12,0,0,0,.72-1.58c.22-.5.42-1,.59-1.52s.39-1.19.54-1.79a15.62,15.62,0,0,0,.39-1.64c.12-.65.21-1.31.3-2a12.4,12.4,0,0,0,0-3.22c-.08-.35-.17-.68-.27-1a.3.3,0,0,0-.09-.13.27.27,0,0,0-.15,0h-.45a10.35,10.35,0,0,1-2.41-.32c-.51-.12-1-.24-1.55-.39s-1.17-.4-1.81-.64a17.64,17.64,0,0,1-2.68-1.34A20.38,20.38,0,0,1,.12,70.52a.11.11,0,0,0-.08,0,.11.11,0,0,0-.08,0l-.72.53A18.08,18.08,0,0,1-3,72.48c-.72.38-1.46.74-2.21,1.1a11.25,11.25,0,0,1-1.4.54c-.57.17-1.1.32-1.67.47a16.91,16.91,0,0,1-1.73.3c-.5.06-1,.06-1.55.12a.28.28,0,0,0-.12,0,.34.34,0,0,0-.09.08,3.27,3.27,0,0,0-.17.53,9.06,9.06,0,0,0-.24,2.54Z"/><path class="cls-3" d="M254.6,196.33a13.86,13.86,0,0,1-.2,2.65c-.15.86-.36,1.7-.57,2.53-.16.63-.35,1.24-.57,1.85a22.71,22.71,0,0,1-.83,2.12c-.3.68-.57,1.28-.89,1.9s-.66,1.17-1,1.73a16.08,16.08,0,0,1-1.76,2.42,16.43,16.43,0,0,1-2.68,2.59,11.92,11.92,0,0,1-2,1.28,10.9,10.9,0,0,1-2.14.83,1.21,1.21,0,0,1-.75-.06,10.12,10.12,0,0,1-2.05-.83,12.28,12.28,0,0,1-2.42-1.61,21.31,21.31,0,0,1-5.06-6.59c-.39-.8-.78-1.63-1.14-2.47-.26-.62-.47-1.28-.68-1.94a15.24,15.24,0,0,1-.48-1.63,17.38,17.38,0,0,1-.38-1.88c-.09-.63-.18-1.31-.27-2a8.65,8.65,0,0,1-.06-1.25,10.16,10.16,0,0,1,.27-2.33,11.22,11.22,0,0,1,.41-1.1.23.23,0,0,1,.11-.11.32.32,0,0,1,.16,0,12.17,12.17,0,0,0,2.56-.18,15.62,15.62,0,0,0,2.42-.62,21,21,0,0,0,3.13-1.33,20.51,20.51,0,0,0,3.13-2c.23-.18.47-.39.71-.6.06-.06.09-.06.15,0a12.34,12.34,0,0,0,2.09,1.58c.59.39,1.22.74,1.84,1.07a16.16,16.16,0,0,0,1.85.84c.72.26,1.43.53,2.18.74a17.22,17.22,0,0,0,2,.39,10.44,10.44,0,0,0,2.09.12.27.27,0,0,1,.15,0,.3.3,0,0,1,.09.13,4.56,4.56,0,0,1,.45,1.25A7.77,7.77,0,0,1,254.6,196.33Zm-25.15.12a14.05,14.05,0,0,0,.27,2.59c.18.83.33,1.67.57,2.47a21.67,21.67,0,0,0,.77,2.36c.27.71.6,1.43.93,2.11a23.41,23.41,0,0,0,1.71,3.1,19.76,19.76,0,0,0,2.66,3.25,13.38,13.38,0,0,0,2.56,2,10.22,10.22,0,0,0,2.24,1,1,1,0,0,0,.62.09c.51-.18,1-.36,1.52-.57a11.77,11.77,0,0,0,2.83-1.79,17.62,17.62,0,0,0,2.54-2.71,24.06,24.06,0,0,0,1.54-2.33c.36-.59.66-1.22,1-1.84a15.73,15.73,0,0,0,.71-1.58c.23-.53.42-1,.6-1.52s.39-1.19.54-1.79a13.42,13.42,0,0,0,.38-1.64c.12-.66.21-1.31.3-2a11.58,11.58,0,0,0,0-3.22,8.68,8.68,0,0,0-.27-1,.22.22,0,0,0-.08-.13.21.21,0,0,0-.15-.05h-.45a10.94,10.94,0,0,1-2.42-.33c-.5-.11-1-.23-1.55-.38a17,17,0,0,1-1.78-.66,18.22,18.22,0,0,1-2.69-1.34,21.13,21.13,0,0,1-2.56-1.76.05.05,0,0,0,0,0h-.08l0,0-.71.52a17,17,0,0,1-2.24,1.43c-.71.39-1.46.75-2.2,1.11a9.83,9.83,0,0,1-1.4.53c-.57.18-1.11.33-1.67.48a16.91,16.91,0,0,1-1.73.3c-.51.06-1,.06-1.55.12a.28.28,0,0,0-.12,0l-.09.08a4.72,4.72,0,0,0-.18.53A9.41,9.41,0,0,0,229.45,196.45Z"/><path class="cls-3" d="M281.61,116.66a13.2,13.2,0,0,1-.21,2.66c-.15.86-.36,1.7-.57,2.53a17.12,17.12,0,0,1-.56,1.85c-.24.71-.54,1.43-.84,2.11s-.56,1.28-.89,1.91-.66,1.16-1,1.73a15.5,15.5,0,0,1-1.76,2.41,17.81,17.81,0,0,1-2.68,2.6,14.44,14.44,0,0,1-2,1.28,11.24,11.24,0,0,1-2.15.83,1.17,1.17,0,0,1-.74-.06,10,10,0,0,1-2.06-.83,13.5,13.5,0,0,1-2.41-1.61,18.65,18.65,0,0,1-3.34-3.7,19.21,19.21,0,0,1-1.73-2.89c-.39-.8-.77-1.64-1.13-2.47-.27-.63-.48-1.28-.69-1.94s-.34-1.08-.47-1.64-.3-1.25-.39-1.88-.18-1.31-.27-2a8.65,8.65,0,0,1-.06-1.25,10.16,10.16,0,0,1,.27-2.33c.12-.39.27-.74.42-1.1a.29.29,0,0,1,.1-.12.23.23,0,0,1,.16,0,12.31,12.31,0,0,0,2.57-.18,15.5,15.5,0,0,0,2.41-.62,21,21,0,0,0,3.13-1.33,18.27,18.27,0,0,0,3.13-2c.24-.18.48-.38.72-.59.06-.06.08-.06.14,0a12.34,12.34,0,0,0,2.09,1.58c.6.38,1.22.74,1.85,1.07a13.38,13.38,0,0,0,1.85.83c.71.27,1.43.54,2.17.75a17.22,17.22,0,0,0,2,.39,10.34,10.34,0,0,0,2.08.12.27.27,0,0,1,.15.05.27.27,0,0,1,.09.12,4.74,4.74,0,0,1,.45,1.26A8.35,8.35,0,0,1,281.61,116.66Zm-25.15.12a15.18,15.18,0,0,0,.26,2.6c.18.83.33,1.66.57,2.47a19.6,19.6,0,0,0,.78,2.35c.26.72.59,1.43.92,2.12a24.68,24.68,0,0,0,1.72,3.1,19.7,19.7,0,0,0,2.65,3.25,13.38,13.38,0,0,0,2.56,2,10.22,10.22,0,0,0,2.24,1c.21.06.42.18.63.09.5-.18,1-.36,1.51-.56a11.83,11.83,0,0,0,2.84-1.79,17.08,17.08,0,0,0,2.53-2.71,24.15,24.15,0,0,0,1.55-2.33c.36-.59.65-1.22,1-1.85a12.66,12.66,0,0,0,.72-1.58c.24-.58.41-1,.59-1.52s.39-1.19.54-1.78a15.62,15.62,0,0,0,.39-1.64c.12-.66.21-1.31.3-2a12.4,12.4,0,0,0,0-3.22c-.08-.34-.17-.68-.27-1a.2.2,0,0,0-.09-.13.21.21,0,0,0-.15-.05h-.45a10.93,10.93,0,0,1-2.41-.33c-.51-.12-1-.24-1.55-.39s-1.2-.4-1.79-.65a19.15,19.15,0,0,1-2.68-1.34,21.13,21.13,0,0,1-2.56-1.76.05.05,0,0,0,0,0h-.08l0,0-.72.52a18,18,0,0,1-2.23,1.43c-.72.39-1.46.75-2.21,1.1a11.25,11.25,0,0,1-1.4.54c-.57.18-1.1.33-1.67.48a16.91,16.91,0,0,1-1.73.3,7.59,7.59,0,0,0-1.55.11.35.35,0,0,0-.21.12,3.74,3.74,0,0,0-.17.54A8.85,8.85,0,0,0,256.46,116.78Z"/><path class="cls-3" d="M349.16,116.66a14.84,14.84,0,0,1-.21,2.66c-.15.86-.36,1.7-.57,2.53-.16.62-.35,1.24-.57,1.85a22.53,22.53,0,0,1-.83,2.11c-.3.69-.57,1.28-.89,1.91s-.66,1.16-1,1.73a14.31,14.31,0,0,1-1.76,2.41,16.49,16.49,0,0,1-2.68,2.6,14.44,14.44,0,0,1-2,1.28,10.9,10.9,0,0,1-2.14.83,1.21,1.21,0,0,1-.75-.06,10.12,10.12,0,0,1-2.05-.83,14,14,0,0,1-2.42-1.61,18.6,18.6,0,0,1-3.33-3.7,19.21,19.21,0,0,1-1.73-2.89c-.39-.8-.78-1.64-1.13-2.47-.27-.63-.48-1.28-.69-1.94a15.41,15.41,0,0,1-.48-1.64,17.38,17.38,0,0,1-.38-1.88c-.09-.62-.18-1.31-.27-2a8.65,8.65,0,0,1-.06-1.25,10.16,10.16,0,0,1,.27-2.33,9.13,9.13,0,0,1,.41-1.1.25.25,0,0,1,.11-.12.41.41,0,0,1,.16,0,12.17,12.17,0,0,0,2.56-.18,15.62,15.62,0,0,0,2.42-.62,21,21,0,0,0,3.13-1.33,18.67,18.67,0,0,0,3.13-2c.23-.18.47-.38.71-.59.06-.06.09-.06.15,0a12.34,12.34,0,0,0,2.09,1.58c.59.38,1.22.74,1.84,1.07a14.54,14.54,0,0,0,1.85.83c.72.27,1.43.54,2.18.75a17.22,17.22,0,0,0,2,.39,10.44,10.44,0,0,0,2.09.12.3.3,0,0,1,.15.05.27.27,0,0,1,.09.12,4.74,4.74,0,0,1,.45,1.26A8,8,0,0,1,349.16,116.66Zm-25.16.12a14.25,14.25,0,0,0,.27,2.6c.18.83.33,1.66.57,2.47a21.51,21.51,0,0,0,.77,2.35c.27.72.6,1.43.93,2.12a25.94,25.94,0,0,0,1.71,3.1,20.19,20.19,0,0,0,2.66,3.25,13.38,13.38,0,0,0,2.56,2,10,10,0,0,0,2.24,1c.2.06.41.18.62.09l1.52-.56a11.58,11.58,0,0,0,2.83-1.79,17.62,17.62,0,0,0,2.54-2.71,25.46,25.46,0,0,0,1.55-2.33c.35-.59.65-1.22,1-1.85a11.24,11.24,0,0,0,.71-1.58c.23-.58.42-1,.6-1.52s.39-1.19.54-1.78A13.42,13.42,0,0,0,348,120c.12-.66.21-1.31.3-2a11.58,11.58,0,0,0,0-3.22,8.68,8.68,0,0,0-.27-1,.22.22,0,0,0-.08-.13.21.21,0,0,0-.15-.05h-.45a10.94,10.94,0,0,1-2.42-.33c-.5-.12-1-.24-1.55-.39a19,19,0,0,1-1.78-.65,19.26,19.26,0,0,1-2.69-1.34,22.34,22.34,0,0,1-2.56-1.76l0,0h-.08a.05.05,0,0,0,0,0l-.71.52a18.08,18.08,0,0,1-2.24,1.43c-.71.39-1.46.75-2.2,1.1a11.89,11.89,0,0,1-1.4.54c-.57.18-1.11.33-1.67.48a16.91,16.91,0,0,1-1.73.3,7.55,7.55,0,0,0-1.55.11.35.35,0,0,0-.21.12q-.11.27-.18.54A9.64,9.64,0,0,0,324,116.78Z"/><path class="cls-3" d="M337,55.12a13,13,0,0,1-.21,2.65c-.15.86-.35,1.7-.56,2.53-.16.63-.35,1.24-.57,1.85s-.54,1.43-.83,2.12-.57,1.28-.9,1.9-.65,1.16-1,1.73a16.08,16.08,0,0,1-1.76,2.42,17.27,17.27,0,0,1-2.68,2.59,12.34,12.34,0,0,1-2,1.28,10.9,10.9,0,0,1-2.14.83,1.21,1.21,0,0,1-.75-.06,10.45,10.45,0,0,1-2.06-.83,13.5,13.5,0,0,1-2.41-1.61,19.26,19.26,0,0,1-3.34-3.7A19.07,19.07,0,0,1,314,65.93c-.38-.8-.77-1.63-1.13-2.47-.27-.63-.47-1.28-.68-1.94a15.41,15.41,0,0,1-.48-1.64c-.15-.62-.3-1.25-.39-1.87s-.18-1.31-.27-2a8.65,8.65,0,0,1-.06-1.25,11.49,11.49,0,0,1,.27-2.33c.12-.38.27-.74.42-1.1a.25.25,0,0,1,.11-.12.41.41,0,0,1,.16,0,12.17,12.17,0,0,0,2.56-.18,15.62,15.62,0,0,0,2.42-.62,20.89,20.89,0,0,0,3.12-1.33,18.27,18.27,0,0,0,3.13-2c.24-.17.48-.38.72-.59.06-.06.09-.06.15,0A12.11,12.11,0,0,0,326.14,48c.6.39,1.23.74,1.85,1.07a16.16,16.16,0,0,0,1.85.84c.71.26,1.43.53,2.18.74a17.22,17.22,0,0,0,2,.39,10.44,10.44,0,0,0,2.09.12.27.27,0,0,1,.15.05.3.3,0,0,1,.09.13,4.23,4.23,0,0,1,.44,1.25A8.29,8.29,0,0,1,337,55.12Zm-25.15.12a14.05,14.05,0,0,0,.27,2.59c.18.83.33,1.67.56,2.47a24.14,24.14,0,0,0,.78,2.36c.27.71.59,1.43.92,2.11a24.68,24.68,0,0,0,1.72,3.1,20.67,20.67,0,0,0,2.65,3.25,14.65,14.65,0,0,0,2.57,2,10.63,10.63,0,0,0,2.23,1c.21.06.42.18.63.09.51-.17,1-.35,1.52-.56a11.77,11.77,0,0,0,2.83-1.79A17,17,0,0,0,331,69.11a24.15,24.15,0,0,0,1.55-2.33c.36-.59.66-1.22,1-1.84a13.37,13.37,0,0,0,.71-1.58c.24-.58.42-1,.6-1.52s.38-1.2.53-1.79a15.62,15.62,0,0,0,.39-1.64c.12-.66.21-1.31.3-2a11.58,11.58,0,0,0,0-3.22,8.68,8.68,0,0,0-.27-1,.29.29,0,0,0-.08-.14.24.24,0,0,0-.16,0h-.44a10.94,10.94,0,0,1-2.42-.33c-.51-.12-1-.23-1.55-.38a22.22,22.22,0,0,1-4.47-2,21.13,21.13,0,0,1-2.56-1.76l0,0H324l0,0-.72.52A16.59,16.59,0,0,1,321,49.51c-.72.39-1.46.75-2.21,1.11a11.21,11.21,0,0,1-1.4.53c-.56.18-1.1.33-1.67.48a16.72,16.72,0,0,1-1.72.3c-.51.06-1,.06-1.55.12a.28.28,0,0,0-.12,0,.34.34,0,0,0-.09.08,2.55,2.55,0,0,0-.18.53,9.45,9.45,0,0,0-.25,2.54Z"/><path class="cls-3" d="M412.51,15.44a13.8,13.8,0,0,1-.2,2.65c-.15.87-.36,1.7-.57,2.54-.16.62-.35,1.24-.57,1.84s-.53,1.43-.83,2.12-.57,1.28-.9,1.91-.65,1.16-1,1.73a16,16,0,0,1-1.76,2.41A16.43,16.43,0,0,1,404,33.23a11.92,11.92,0,0,1-2,1.28,10.34,10.34,0,0,1-2.14.84,1.37,1.37,0,0,1-.75-.06,9.61,9.61,0,0,1-2.05-.84,12.28,12.28,0,0,1-2.42-1.61,19.2,19.2,0,0,1-3.34-3.69,19.15,19.15,0,0,1-1.72-2.89c-.39-.81-.78-1.64-1.14-2.47-.26-.63-.47-1.29-.68-1.94a15.41,15.41,0,0,1-.48-1.64c-.15-.63-.3-1.25-.39-1.88s-.17-1.31-.26-2a8.65,8.65,0,0,1-.06-1.25,10.65,10.65,0,0,1,.26-2.32,11.3,11.3,0,0,1,.42-1.1.25.25,0,0,1,.11-.12.22.22,0,0,1,.16,0,12.21,12.21,0,0,0,2.56-.18,16.88,16.88,0,0,0,2.42-.63,22.06,22.06,0,0,0,3.13-1.32,20.51,20.51,0,0,0,3.13-2c.23-.18.47-.39.71-.6.06-.06.09-.06.15,0a12.34,12.34,0,0,0,2.09,1.58c.59.39,1.22.75,1.84,1.08a14.54,14.54,0,0,0,1.85.83c.72.27,1.43.54,2.18.75a15,15,0,0,0,2,.38,9.14,9.14,0,0,0,2.09.12.24.24,0,0,1,.15.06.27.27,0,0,1,.09.12,4.56,4.56,0,0,1,.45,1.25A8,8,0,0,1,412.51,15.44Zm-25.15.12a14.05,14.05,0,0,0,.27,2.59c.18.84.33,1.67.57,2.48A21.29,21.29,0,0,0,389,23c.27.72.6,1.43.92,2.12a26,26,0,0,0,1.72,3.1,19.69,19.69,0,0,0,2.66,3.24,13.38,13.38,0,0,0,2.56,2,10.63,10.63,0,0,0,2.23,1c.21.06.42.18.63.09.51-.18,1-.36,1.52-.57A11.87,11.87,0,0,0,404,32.14a16.26,16.26,0,0,0,2.53-2.71,21.29,21.29,0,0,0,1.55-2.32c.36-.6.66-1.22,1-1.85a14.14,14.14,0,0,0,.71-1.58c.24-.58.42-1,.6-1.52s.39-1.19.54-1.79a13.42,13.42,0,0,0,.38-1.64c.12-.65.21-1.31.3-2a11.58,11.58,0,0,0,0-3.22,8.68,8.68,0,0,0-.27-1,.22.22,0,0,0-.08-.13.2.2,0,0,0-.16,0h-.44a10.94,10.94,0,0,1-2.42-.33c-.5-.12-1-.24-1.55-.39s-1.19-.42-1.78-.65a19.32,19.32,0,0,1-2.69-1.35,22.25,22.25,0,0,1-2.56-1.75l0,0h-.08l0,0-.71.52a18.08,18.08,0,0,1-2.24,1.43c-.71.39-1.46.74-2.2,1.1a11.89,11.89,0,0,1-1.4.54c-.57.18-1.11.32-1.67.47a16.91,16.91,0,0,1-1.73.3c-.51.06-1,.06-1.55.12a.28.28,0,0,0-.12,0,.34.34,0,0,0-.09.08q-.1.27-.18.54A9.48,9.48,0,0,0,387.36,15.56Z"/></g></svg>