<svg id="Layer_2" data-name="Layer 2" xmlns="http://www.w3.org/2000/svg" viewBox="0 0 749.24 241.94"><defs><style>.cls-1{fill:#0c45f6;}.cls-2{isolation:isolate;}</style></defs><path class="cls-1" d="M140,71.27S107.63,71.76,73.7,46c0,0-32.54,25.54-66.51,25,0,0-3.18,9.53-1.66,24s16.64,80.47,66.13,98.24a6.11,6.11,0,0,0,2.65.34,6.35,6.35,0,0,0,1.45-.3c1.41-.5,51.46-13.32,65.64-96.53,0,0,2.69-19.45-1.39-25.5Zm-2.78,26.92c-13.31,78.1-60.29,90.12-61.61,90.59a6,6,0,0,1-1.35.29,5.71,5.71,0,0,1-2.49-.31c-46.44-16.7-60.64-78.7-62.06-92.22S11.29,74,11.29,74c31.87.52,62.42-23.45,62.42-23.45C105.54,74.7,136,74.25,136,74.25c3.82,5.67,1.29,23.94,1.29,23.94Z"/><path class="cls-1" d="M74,62.59A53.4,53.4,0,1,0,127.37,116,53.39,53.39,0,0,0,74,62.59Zm0,100.57A47.18,47.18,0,1,1,121.15,116,47.18,47.18,0,0,1,74,163.16Z"/><path class="cls-1" d="M90,159.79,86.34,134l19.18-28.47L90.4,84.27,70.87,93.6v7.08l4,6.35L84.17,103s-8.9,0-9.42-1.08l7.39-.35L87,97l-.86,5.36s4,1.43,3.84,1.38-8,3.41-8,3.41L68.6,128.77s-.37,1.79,0,2.2A34.84,34.84,0,0,0,71.54,133l-3.1,0L70.83,163l-3.11-.31-1.06-29.46-3.3.75,14.87-25.81s-12.47.47-20.38,10.48L56.62,118l5.83-5.66L48,96.51l-6.26,8.55,13.77,11.6s-.22.3-.29.28-8-5.29-8-5.29.56,15.38,5.36,20.45c0,0,4.19,5,4.19,5.79s-.49,21.8-.49,21.8,16.47,10.6,24.42,7.92S90,159.75,90,159.75Z"/><polygon class="cls-1" points="72.86 107.13 58 87.95 49.75 95.51 63.74 111.53 72.86 107.13"/><polygon class="cls-1" points="69.35 99.1 68.64 92.59 75.67 88.99 68.64 77.93 59.32 86.58 69.35 99.1"/><polygon class="cls-1" points="88.43 83.32 77.35 88.15 70.84 77.59 79.25 71.05 88.43 83.32"/><g class="cls-2"><path class="cls-1" d="M265.58,195.64l-28.21-49.07H221.2v49.07H187.06V46.3H246.8A51,51,0,0,1,298,97.5a45.39,45.39,0,0,1-7.58,25.28,51.79,51.79,0,0,1-19.95,18l31.79,54.83ZM221.2,78.3v38.4h25.6a15.69,15.69,0,0,0,12.06-5.54,19.63,19.63,0,0,0,5-13.66,19.63,19.63,0,0,0-5-13.65A15.7,15.7,0,0,0,246.8,78.3Z"/><path class="cls-1" d="M442.44,176.23q-22.6,22.4-55,22.4t-55-22.4Q309.74,153.82,309.74,121t22.61-55.26q22.62-22.39,55-22.4t55,22.4Q465.06,88.12,465.06,121T442.44,176.23ZM356.36,153q12.48,12.38,31,12.38t31-12.38q12.48-12.36,12.48-32T418.44,89Q406,76.6,387.4,76.59T356.36,89q-12.48,12.38-12.48,32T356.36,153Z"/><path class="cls-1" d="M610.56,176.23q-22.62,22.4-55,22.4t-55-22.4Q477.86,153.82,477.86,121t22.61-55.26q22.62-22.39,55-22.4t55,22.4Q633.18,88.12,633.18,121T610.56,176.23ZM524.47,153q12.49,12.38,31,12.38t31-12.38Q599,140.61,599,121T586.56,89q-12.48-12.37-31-12.38T524.47,89Q512,101.35,512,121T524.47,153Z"/><path class="cls-1" d="M744.12,46.3V79.15h-38.4V195.64H671.58V79.15h-38.4V46.3Z"/></g></svg>