<svg id="Layer_2" data-name="Layer 2" xmlns="http://www.w3.org/2000/svg" viewBox="0 0 250 250"><defs><style>.cls-1{fill:#318ce7;}</style></defs><path class="cls-1" d="M222.66,53.52S175,54.24,125,16.3c0,0-47.93,37.62-98,36.82,0,0-4.68,14-2.44,35.35S49.11,207,122,233.16a9.34,9.34,0,0,0,6,.06c2.08-.74,75.79-19.62,96.68-142.17,0,0,4-28.65-2.05-37.56Zm-4.1,39.65c-19.6,115-88.79,132.73-90.74,133.42a9.15,9.15,0,0,1-2,.43,8.43,8.43,0,0,1-3.66-.46C53.77,202,32.85,110.65,30.76,90.74s2.33-33.2,2.33-33.2C80,58.31,125,23,125,23c46.88,35.57,91.75,34.91,91.75,34.91,5.62,8.35,1.9,35.26,1.9,35.26Z"/><path class="cls-1" d="M125.45,40.74a78.65,78.65,0,1,0,78.6,78.7h0a78.62,78.62,0,0,0-78.58-78.66h0Zm0,148.12a69.49,69.49,0,1,1,69.44-69.54h0v.07A69.48,69.48,0,0,1,125.45,188.86Z"/><path class="cls-1" d="M149,183.89l-5.4-38L171.87,104,149.6,72.67,120.84,86.41V96.83l5.89,9.36,13.7-5.94s-13.11,0-13.88-1.59l10.89-.51,7.16-6.73-1.27,7.89,5.66,2c-.24-.07-11.79,5-11.79,5l-19.7,31.85s-.55,2.63,0,3.24c1.39,1.07,2.84,2.07,4.33,3h-4.57l3.52,44.18-4.58-.46-1.56-43.38-4.86,1.1,21.9-38s-18.37.69-30,15.43l-1.81-1,8.59-8.33L87.16,90.69l-9.22,12.6,20.28,17.08s-.33.44-.43.41S86,113,86,113s.82,22.65,7.89,30.12c0,0,6.17,7.37,6.17,8.53s-.72,32.11-.72,32.11,24.26,15.61,36,11.66S149,183.83,149,183.83Z"/><polygon class="cls-1" points="123.77 106.33 101.89 78.09 89.73 89.22 110.34 112.81 123.77 106.33"/><polygon class="cls-1" points="118.6 94.51 117.56 84.92 127.91 79.62 117.56 63.33 103.83 76.07 118.6 94.51"/><polygon class="cls-1" points="146.7 71.27 130.38 78.38 120.8 62.83 133.18 53.2 146.7 71.27"/></svg>